<svg width="870" height="36" viewBox="0 0 870 36" fill="none" xmlns="http://www.w3.org/2000/svg">
<path d="M14.156 28.288C11.612 28.288 9.32 27.736 7.28 26.632C5.24 25.504 3.632 23.956 2.456 21.988C1.304 20.02 0.728 17.824 0.728 15.4C0.728 12.976 1.304 10.78 2.456 8.812C3.632 6.844 5.24 5.308 7.28 4.204C9.32 3.076 11.612 2.512 14.156 2.512C16.676 2.512 18.956 3.076 20.996 4.204C23.036 5.308 24.632 6.844 25.784 8.812C26.936 10.756 27.512 12.952 27.512 15.4C27.512 17.848 26.936 20.056 25.784 22.024C24.632 23.968 23.036 25.504 20.996 26.632C18.956 27.736 16.676 28.288 14.156 28.288ZM14.156 25.084C16.004 25.084 17.66 24.664 19.124 23.824C20.612 22.984 21.776 21.832 22.616 20.368C23.48 18.88 23.912 17.224 23.912 15.4C23.912 13.576 23.48 11.932 22.616 10.468C21.776 8.98 20.612 7.816 19.124 6.976C17.66 6.136 16.004 5.716 14.156 5.716C12.308 5.716 10.628 6.136 9.116 6.976C7.628 7.816 6.452 8.98 5.588 10.468C4.748 11.932 4.328 13.576 4.328 15.4C4.328 17.224 4.748 18.88 5.588 20.368C6.452 21.832 7.628 22.984 9.116 23.824C10.628 24.664 12.308 25.084 14.156 25.084ZM50.2944 8.92V28H47.0184V25.12C46.3224 26.104 45.3984 26.872 44.2464 27.424C43.1184 27.952 41.8824 28.216 40.5384 28.216C37.9944 28.216 35.9904 27.52 34.5264 26.128C33.0624 24.712 32.3304 22.636 32.3304 19.9V8.92H35.7864V19.504C35.7864 21.352 36.2304 22.756 37.1184 23.716C38.0064 24.652 39.2784 25.12 40.9344 25.12C42.7584 25.12 44.1984 24.568 45.2544 23.464C46.3104 22.36 46.8384 20.8 46.8384 18.784V8.92H50.2944ZM66.9897 8.74C68.8377 8.74 70.4937 9.148 71.9577 9.964C73.4217 10.78 74.5617 11.92 75.3777 13.384C76.2177 14.848 76.6377 16.54 76.6377 18.46C76.6377 20.38 76.2177 22.084 75.3777 23.572C74.5617 25.036 73.4217 26.176 71.9577 26.992C70.4937 27.808 68.8377 28.216 66.9897 28.216C65.6217 28.216 64.3617 27.952 63.2097 27.424C62.0817 26.896 61.1217 26.128 60.3297 25.12V34.984H56.8737V8.92H60.1857V11.944C60.9537 10.888 61.9257 10.096 63.1017 9.568C64.2777 9.016 65.5737 8.74 66.9897 8.74ZM66.7017 25.192C67.9257 25.192 69.0177 24.916 69.9777 24.364C70.9617 23.788 71.7297 22.996 72.2817 21.988C72.8577 20.956 73.1457 19.78 73.1457 18.46C73.1457 17.14 72.8577 15.976 72.2817 14.968C71.7297 13.936 70.9617 13.144 69.9777 12.592C69.0177 12.04 67.9257 11.764 66.7017 11.764C65.5017 11.764 64.4097 12.052 63.4257 12.628C62.4657 13.18 61.6977 13.96 61.1217 14.968C60.5697 15.976 60.2937 17.14 60.2937 18.46C60.2937 19.78 60.5697 20.956 61.1217 21.988C61.6737 22.996 62.4417 23.788 63.4257 24.364C64.4097 24.916 65.5017 25.192 66.7017 25.192ZM86.8847 28.216C85.3247 28.216 83.8247 28.012 82.3847 27.604C80.9447 27.172 79.8167 26.632 79.0007 25.984L80.4407 23.248C81.2807 23.848 82.3007 24.328 83.5007 24.688C84.7007 25.048 85.9127 25.228 87.1367 25.228C90.1607 25.228 91.6727 24.364 91.6727 22.636C91.6727 22.06 91.4687 21.604 91.0607 21.268C90.6527 20.932 90.1367 20.692 89.5127 20.548C88.9127 20.38 88.0487 20.2 86.9207 20.008C85.3847 19.768 84.1247 19.492 83.1407 19.18C82.1807 18.868 81.3527 18.34 80.6567 17.596C79.9607 16.852 79.6127 15.808 79.6127 14.464C79.6127 12.736 80.3327 11.356 81.7727 10.324C83.2127 9.268 85.1447 8.74 87.5687 8.74C88.8407 8.74 90.1127 8.896 91.3847 9.208C92.6567 9.52 93.7007 9.94 94.5167 10.468L93.0407 13.204C91.4807 12.196 89.6447 11.692 87.5327 11.692C86.0687 11.692 84.9527 11.932 84.1847 12.412C83.4167 12.892 83.0327 13.528 83.0327 14.32C83.0327 14.944 83.2487 15.436 83.6807 15.796C84.1127 16.156 84.6407 16.42 85.2647 16.588C85.9127 16.756 86.8127 16.948 87.9647 17.164C89.5007 17.428 90.7367 17.716 91.6727 18.028C92.6327 18.316 93.4487 18.82 94.1207 19.54C94.7927 20.26 95.1287 21.268 95.1287 22.564C95.1287 24.292 94.3847 25.672 92.8967 26.704C91.4327 27.712 89.4287 28.216 86.8847 28.216ZM98.9799 2.8H103.048L102.364 20.044H99.6279L98.9799 2.8ZM101.032 28.216C100.36 28.216 99.7959 28 99.3399 27.568C98.8839 27.112 98.6559 26.56 98.6559 25.912C98.6559 25.264 98.8839 24.724 99.3399 24.292C99.7959 23.836 100.36 23.608 101.032 23.608C101.704 23.608 102.256 23.836 102.688 24.292C103.12 24.724 103.336 25.264 103.336 25.912C103.336 26.56 103.108 27.112 102.652 27.568C102.22 28 101.68 28.216 101.032 28.216ZM119.253 2.8H122.853V24.868H136.497V28H119.253V2.8ZM147.177 8.74C149.817 8.74 151.833 9.388 153.225 10.684C154.641 11.98 155.349 13.912 155.349 16.48V28H152.073V25.48C151.497 26.368 150.669 27.052 149.589 27.532C148.533 27.988 147.273 28.216 145.809 28.216C143.673 28.216 141.957 27.7 140.661 26.668C139.389 25.636 138.753 24.28 138.753 22.6C138.753 20.92 139.365 19.576 140.589 18.568C141.813 17.536 143.757 17.02 146.421 17.02H151.893V16.336C151.893 14.848 151.461 13.708 150.597 12.916C149.733 12.124 148.461 11.728 146.781 11.728C145.653 11.728 144.549 11.92 143.469 12.304C142.389 12.664 141.477 13.156 140.733 13.78L139.293 11.188C140.277 10.396 141.453 9.796 142.821 9.388C144.189 8.956 145.641 8.74 147.177 8.74ZM146.385 25.552C147.705 25.552 148.845 25.264 149.805 24.688C150.765 24.088 151.461 23.248 151.893 22.168V19.504H146.565C143.637 19.504 142.173 20.488 142.173 22.456C142.173 23.416 142.545 24.172 143.289 24.724C144.033 25.276 145.065 25.552 146.385 25.552ZM181.529 8.74C183.377 8.74 185.033 9.148 186.497 9.964C187.961 10.78 189.101 11.92 189.917 13.384C190.757 14.848 191.177 16.54 191.177 18.46C191.177 20.38 190.757 22.084 189.917 23.572C189.101 25.036 187.961 26.176 186.497 26.992C185.033 27.808 183.377 28.216 181.529 28.216C180.161 28.216 178.901 27.952 177.749 27.424C176.621 26.896 175.661 26.128 174.869 25.12V34.984H171.413V8.92H174.725V11.944C175.493 10.888 176.465 10.096 177.641 9.568C178.817 9.016 180.113 8.74 181.529 8.74ZM181.241 25.192C182.465 25.192 183.557 24.916 184.517 24.364C185.501 23.788 186.269 22.996 186.821 21.988C187.397 20.956 187.685 19.78 187.685 18.46C187.685 17.14 187.397 15.976 186.821 14.968C186.269 13.936 185.501 13.144 184.517 12.592C183.557 12.04 182.465 11.764 181.241 11.764C180.041 11.764 178.949 12.052 177.965 12.628C177.005 13.18 176.237 13.96 175.661 14.968C175.109 15.976 174.833 17.14 174.833 18.46C174.833 19.78 175.109 20.956 175.661 21.988C176.213 22.996 176.981 23.788 177.965 24.364C178.949 24.916 180.041 25.192 181.241 25.192ZM202.724 8.74C205.364 8.74 207.38 9.388 208.772 10.684C210.188 11.98 210.896 13.912 210.896 16.48V28H207.62V25.48C207.044 26.368 206.216 27.052 205.136 27.532C204.08 27.988 202.82 28.216 201.356 28.216C199.22 28.216 197.504 27.7 196.208 26.668C194.936 25.636 194.3 24.28 194.3 22.6C194.3 20.92 194.912 19.576 196.136 18.568C197.36 17.536 199.304 17.02 201.968 17.02H207.44V16.336C207.44 14.848 207.008 13.708 206.144 12.916C205.28 12.124 204.008 11.728 202.328 11.728C201.2 11.728 200.096 11.92 199.016 12.304C197.936 12.664 197.024 13.156 196.28 13.78L194.84 11.188C195.824 10.396 197 9.796 198.368 9.388C199.736 8.956 201.188 8.74 202.724 8.74ZM201.932 25.552C203.252 25.552 204.392 25.264 205.352 24.688C206.312 24.088 207.008 23.248 207.44 22.168V19.504H202.112C199.184 19.504 197.72 20.488 197.72 22.456C197.72 23.416 198.092 24.172 198.836 24.724C199.58 25.276 200.612 25.552 201.932 25.552ZM235.649 8.92V25.408C235.649 28.744 234.821 31.204 233.165 32.788C231.509 34.396 229.037 35.2 225.749 35.2C223.949 35.2 222.233 34.948 220.601 34.444C218.969 33.964 217.649 33.268 216.641 32.356L218.297 29.692C219.185 30.46 220.277 31.06 221.573 31.492C222.893 31.948 224.249 32.176 225.641 32.176C227.873 32.176 229.517 31.648 230.573 30.592C231.653 29.536 232.193 27.928 232.193 25.768V24.256C231.377 25.24 230.369 25.984 229.169 26.488C227.993 26.968 226.709 27.208 225.317 27.208C223.493 27.208 221.837 26.824 220.349 26.056C218.885 25.264 217.733 24.172 216.893 22.78C216.053 21.364 215.633 19.756 215.633 17.956C215.633 16.156 216.053 14.56 216.893 13.168C217.733 11.752 218.885 10.66 220.349 9.892C221.837 9.124 223.493 8.74 225.317 8.74C226.757 8.74 228.089 9.004 229.313 9.532C230.561 10.06 231.581 10.84 232.373 11.872V8.92H235.649ZM225.713 24.184C226.961 24.184 228.077 23.92 229.061 23.392C230.069 22.864 230.849 22.132 231.401 21.196C231.977 20.236 232.265 19.156 232.265 17.956C232.265 16.108 231.653 14.62 230.429 13.492C229.205 12.34 227.633 11.764 225.713 11.764C223.769 11.764 222.185 12.34 220.961 13.492C219.737 14.62 219.125 16.108 219.125 17.956C219.125 19.156 219.401 20.236 219.953 21.196C220.529 22.132 221.309 22.864 222.293 23.392C223.301 23.92 224.441 24.184 225.713 24.184ZM259.497 18.568C259.497 18.832 259.473 19.18 259.425 19.612H243.945C244.161 21.292 244.893 22.648 246.141 23.68C247.413 24.688 248.985 25.192 250.857 25.192C253.137 25.192 254.973 24.424 256.365 22.888L258.273 25.12C257.409 26.128 256.329 26.896 255.033 27.424C253.761 27.952 252.333 28.216 250.749 28.216C248.733 28.216 246.945 27.808 245.385 26.992C243.825 26.152 242.613 24.988 241.749 23.5C240.909 22.012 240.489 20.332 240.489 18.46C240.489 16.612 240.897 14.944 241.713 13.456C242.553 11.968 243.693 10.816 245.133 10C246.597 9.16 248.241 8.74 250.065 8.74C251.889 8.74 253.509 9.16 254.925 10C256.365 10.816 257.481 11.968 258.273 13.456C259.089 14.944 259.497 16.648 259.497 18.568ZM250.065 11.656C248.409 11.656 247.017 12.16 245.889 13.168C244.785 14.176 244.137 15.496 243.945 17.128H256.185C255.993 15.52 255.333 14.212 254.205 13.204C253.101 12.172 251.721 11.656 250.065 11.656ZM291.964 8.92V34.984H288.508V25.12C287.716 26.128 286.744 26.896 285.592 27.424C284.464 27.952 283.216 28.216 281.848 28.216C280 28.216 278.344 27.808 276.88 26.992C275.416 26.176 274.264 25.036 273.424 23.572C272.608 22.084 272.2 20.38 272.2 18.46C272.2 16.54 272.608 14.848 273.424 13.384C274.264 11.92 275.416 10.78 276.88 9.964C278.344 9.148 280 8.74 281.848 8.74C283.264 8.74 284.56 9.016 285.736 9.568C286.912 10.096 287.884 10.888 288.652 11.944V8.92H291.964ZM282.136 25.192C283.336 25.192 284.428 24.916 285.412 24.364C286.396 23.788 287.164 22.996 287.716 21.988C288.268 20.956 288.544 19.78 288.544 18.46C288.544 17.14 288.256 15.976 287.68 14.968C287.128 13.96 286.36 13.18 285.376 12.628C284.416 12.052 283.336 11.764 282.136 11.764C280.912 11.764 279.808 12.04 278.824 12.592C277.864 13.144 277.096 13.936 276.52 14.968C275.968 15.976 275.692 17.14 275.692 18.46C275.692 19.78 275.968 20.956 276.52 21.988C277.096 22.996 277.864 23.788 278.824 24.364C279.808 24.916 280.912 25.192 282.136 25.192ZM316.287 8.92V28H313.011V25.12C312.315 26.104 311.391 26.872 310.239 27.424C309.111 27.952 307.875 28.216 306.531 28.216C303.987 28.216 301.983 27.52 300.519 26.128C299.055 24.712 298.323 22.636 298.323 19.9V8.92H301.779V19.504C301.779 21.352 302.223 22.756 303.111 23.716C303.999 24.652 305.271 25.12 306.927 25.12C308.751 25.12 310.191 24.568 311.247 23.464C312.303 22.36 312.831 20.8 312.831 18.784V8.92H316.287ZM340.11 18.568C340.11 18.832 340.086 19.18 340.038 19.612H324.558C324.774 21.292 325.506 22.648 326.754 23.68C328.026 24.688 329.598 25.192 331.47 25.192C333.75 25.192 335.586 24.424 336.978 22.888L338.886 25.12C338.022 26.128 336.942 26.896 335.646 27.424C334.374 27.952 332.946 28.216 331.362 28.216C329.346 28.216 327.558 27.808 325.998 26.992C324.438 26.152 323.226 24.988 322.362 23.5C321.522 22.012 321.102 20.332 321.102 18.46C321.102 16.612 321.51 14.944 322.326 13.456C323.166 11.968 324.306 10.816 325.746 10C327.21 9.16 328.854 8.74 330.678 8.74C332.502 8.74 334.122 9.16 335.538 10C336.978 10.816 338.094 11.968 338.886 13.456C339.702 14.944 340.11 16.648 340.11 18.568ZM330.678 11.656C329.022 11.656 327.63 12.16 326.502 13.168C325.398 14.176 324.75 15.496 324.558 17.128H336.798C336.606 15.52 335.946 14.212 334.818 13.204C333.714 12.172 332.334 11.656 330.678 11.656ZM371.461 8.92L363.109 28H359.581L351.229 8.92H354.829L361.381 24.22L368.077 8.92H371.461ZM382.331 28.216C380.435 28.216 378.731 27.796 377.219 26.956C375.707 26.116 374.519 24.964 373.655 23.5C372.815 22.012 372.395 20.332 372.395 18.46C372.395 16.588 372.815 14.92 373.655 13.456C374.519 11.968 375.707 10.816 377.219 10C378.731 9.16 380.435 8.74 382.331 8.74C384.227 8.74 385.919 9.16 387.407 10C388.919 10.816 390.095 11.968 390.935 13.456C391.799 14.92 392.231 16.588 392.231 18.46C392.231 20.332 391.799 22.012 390.935 23.5C390.095 24.964 388.919 26.116 387.407 26.956C385.919 27.796 384.227 28.216 382.331 28.216ZM382.331 25.192C383.555 25.192 384.647 24.916 385.607 24.364C386.591 23.788 387.359 22.996 387.911 21.988C388.463 20.956 388.739 19.78 388.739 18.46C388.739 17.14 388.463 15.976 387.911 14.968C387.359 13.936 386.591 13.144 385.607 12.592C384.647 12.04 383.555 11.764 382.331 11.764C381.107 11.764 380.003 12.04 379.019 12.592C378.059 13.144 377.291 13.936 376.715 14.968C376.163 15.976 375.887 17.14 375.887 18.46C375.887 19.78 376.163 20.956 376.715 21.988C377.291 22.996 378.059 23.788 379.019 24.364C380.003 24.916 381.107 25.192 382.331 25.192ZM414.794 8.92V28H411.518V25.12C410.822 26.104 409.898 26.872 408.746 27.424C407.618 27.952 406.382 28.216 405.038 28.216C402.494 28.216 400.49 27.52 399.026 26.128C397.562 24.712 396.83 22.636 396.83 19.9V8.92H400.286V19.504C400.286 21.352 400.73 22.756 401.618 23.716C402.506 24.652 403.778 25.12 405.434 25.12C407.258 25.12 408.698 24.568 409.754 23.464C410.81 22.36 411.338 20.8 411.338 18.784V8.92H414.794ZM426.846 28.216C425.286 28.216 423.786 28.012 422.346 27.604C420.906 27.172 419.778 26.632 418.962 25.984L420.402 23.248C421.242 23.848 422.262 24.328 423.462 24.688C424.662 25.048 425.874 25.228 427.098 25.228C430.122 25.228 431.634 24.364 431.634 22.636C431.634 22.06 431.43 21.604 431.022 21.268C430.614 20.932 430.098 20.692 429.474 20.548C428.874 20.38 428.01 20.2 426.882 20.008C425.346 19.768 424.086 19.492 423.102 19.18C422.142 18.868 421.314 18.34 420.618 17.596C419.922 16.852 419.574 15.808 419.574 14.464C419.574 12.736 420.294 11.356 421.734 10.324C423.174 9.268 425.106 8.74 427.53 8.74C428.802 8.74 430.074 8.896 431.346 9.208C432.618 9.52 433.662 9.94 434.478 10.468L433.002 13.204C431.442 12.196 429.606 11.692 427.494 11.692C426.03 11.692 424.914 11.932 424.146 12.412C423.378 12.892 422.994 13.528 422.994 14.32C422.994 14.944 423.21 15.436 423.642 15.796C424.074 16.156 424.602 16.42 425.226 16.588C425.874 16.756 426.774 16.948 427.926 17.164C429.462 17.428 430.698 17.716 431.634 18.028C432.594 18.316 433.41 18.82 434.082 19.54C434.754 20.26 435.09 21.268 435.09 22.564C435.09 24.292 434.346 25.672 432.858 26.704C431.394 27.712 429.39 28.216 426.846 28.216ZM467.077 1.288V28H463.765V24.976C462.997 26.032 462.025 26.836 460.849 27.388C459.673 27.94 458.377 28.216 456.961 28.216C455.113 28.216 453.457 27.808 451.993 26.992C450.529 26.176 449.377 25.036 448.537 23.572C447.721 22.084 447.313 20.38 447.313 18.46C447.313 16.54 447.721 14.848 448.537 13.384C449.377 11.92 450.529 10.78 451.993 9.964C453.457 9.148 455.113 8.74 456.961 8.74C458.329 8.74 459.589 9.004 460.741 9.532C461.893 10.036 462.853 10.792 463.621 11.8V1.288H467.077ZM457.249 25.192C458.449 25.192 459.541 24.916 460.525 24.364C461.509 23.788 462.277 22.996 462.829 21.988C463.381 20.956 463.657 19.78 463.657 18.46C463.657 17.14 463.381 15.976 462.829 14.968C462.277 13.936 461.509 13.144 460.525 12.592C459.541 12.04 458.449 11.764 457.249 11.764C456.025 11.764 454.921 12.04 453.937 12.592C452.977 13.144 452.209 13.936 451.633 14.968C451.081 15.976 450.805 17.14 450.805 18.46C450.805 19.78 451.081 20.956 451.633 21.988C452.209 22.996 452.977 23.788 453.937 24.364C454.921 24.916 456.025 25.192 457.249 25.192ZM490.86 18.568C490.86 18.832 490.836 19.18 490.788 19.612H475.308C475.524 21.292 476.256 22.648 477.504 23.68C478.776 24.688 480.348 25.192 482.22 25.192C484.5 25.192 486.336 24.424 487.728 22.888L489.636 25.12C488.772 26.128 487.692 26.896 486.396 27.424C485.124 27.952 483.696 28.216 482.112 28.216C480.096 28.216 478.308 27.808 476.748 26.992C475.188 26.152 473.976 24.988 473.112 23.5C472.272 22.012 471.852 20.332 471.852 18.46C471.852 16.612 472.26 14.944 473.076 13.456C473.916 11.968 475.056 10.816 476.496 10C477.96 9.16 479.604 8.74 481.428 8.74C483.252 8.74 484.872 9.16 486.288 10C487.728 10.816 488.844 11.968 489.636 13.456C490.452 14.944 490.86 16.648 490.86 18.568ZM481.428 11.656C479.772 11.656 478.38 12.16 477.252 13.168C476.148 14.176 475.5 15.496 475.308 17.128H487.548C487.356 15.52 486.696 14.212 485.568 13.204C484.464 12.172 483.084 11.656 481.428 11.656ZM519.527 8.74C521.927 8.74 523.823 9.436 525.215 10.828C526.631 12.22 527.339 14.284 527.339 17.02V28H523.883V17.416C523.883 15.568 523.451 14.176 522.587 13.24C521.747 12.304 520.535 11.836 518.951 11.836C517.199 11.836 515.807 12.388 514.775 13.492C513.743 14.572 513.227 16.132 513.227 18.172V28H509.771V17.416C509.771 15.568 509.339 14.176 508.475 13.24C507.635 12.304 506.423 11.836 504.839 11.836C503.087 11.836 501.695 12.388 500.663 13.492C499.631 14.572 499.115 16.132 499.115 18.172V28H495.659V8.92H498.971V11.764C499.667 10.78 500.579 10.036 501.707 9.532C502.835 9.004 504.119 8.74 505.559 8.74C507.047 8.74 508.367 9.04 509.519 9.64C510.671 10.24 511.559 11.116 512.183 12.268C512.903 11.164 513.899 10.3 515.171 9.676C516.467 9.052 517.919 8.74 519.527 8.74ZM540.646 8.74C543.286 8.74 545.302 9.388 546.694 10.684C548.11 11.98 548.818 13.912 548.818 16.48V28H545.542V25.48C544.966 26.368 544.138 27.052 543.058 27.532C542.002 27.988 540.742 28.216 539.278 28.216C537.142 28.216 535.426 27.7 534.13 26.668C532.858 25.636 532.222 24.28 532.222 22.6C532.222 20.92 532.834 19.576 534.058 18.568C535.282 17.536 537.226 17.02 539.89 17.02H545.362V16.336C545.362 14.848 544.93 13.708 544.066 12.916C543.202 12.124 541.93 11.728 540.25 11.728C539.122 11.728 538.018 11.92 536.938 12.304C535.858 12.664 534.946 13.156 534.202 13.78L532.762 11.188C533.746 10.396 534.922 9.796 536.29 9.388C537.658 8.956 539.11 8.74 540.646 8.74ZM539.854 25.552C541.174 25.552 542.314 25.264 543.274 24.688C544.234 24.088 544.93 23.248 545.362 22.168V19.504H540.034C537.106 19.504 535.642 20.488 535.642 22.456C535.642 23.416 536.014 24.172 536.758 24.724C537.502 25.276 538.534 25.552 539.854 25.552ZM565.402 8.74C567.826 8.74 569.746 9.448 571.162 10.864C572.602 12.256 573.322 14.308 573.322 17.02V28H569.866V17.416C569.866 15.568 569.422 14.176 568.534 13.24C567.646 12.304 566.374 11.836 564.718 11.836C562.846 11.836 561.37 12.388 560.29 13.492C559.21 14.572 558.67 16.132 558.67 18.172V28H555.214V8.92H558.526V11.8C559.222 10.816 560.158 10.06 561.334 9.532C562.534 9.004 563.89 8.74 565.402 8.74ZM597.823 1.288V28H594.511V24.976C593.743 26.032 592.771 26.836 591.595 27.388C590.419 27.94 589.123 28.216 587.707 28.216C585.859 28.216 584.203 27.808 582.739 26.992C581.275 26.176 580.123 25.036 579.283 23.572C578.467 22.084 578.059 20.38 578.059 18.46C578.059 16.54 578.467 14.848 579.283 13.384C580.123 11.92 581.275 10.78 582.739 9.964C584.203 9.148 585.859 8.74 587.707 8.74C589.075 8.74 590.335 9.004 591.487 9.532C592.639 10.036 593.599 10.792 594.367 11.8V1.288H597.823ZM587.995 25.192C589.195 25.192 590.287 24.916 591.271 24.364C592.255 23.788 593.023 22.996 593.575 21.988C594.127 20.956 594.403 19.78 594.403 18.46C594.403 17.14 594.127 15.976 593.575 14.968C593.023 13.936 592.255 13.144 591.271 12.592C590.287 12.04 589.195 11.764 587.995 11.764C586.771 11.764 585.667 12.04 584.683 12.592C583.723 13.144 582.955 13.936 582.379 14.968C581.827 15.976 581.551 17.14 581.551 18.46C581.551 19.78 581.827 20.956 582.379 21.988C582.955 22.996 583.723 23.788 584.683 24.364C585.667 24.916 586.771 25.192 587.995 25.192ZM621.606 18.568C621.606 18.832 621.582 19.18 621.534 19.612H606.054C606.27 21.292 607.002 22.648 608.25 23.68C609.522 24.688 611.094 25.192 612.966 25.192C615.246 25.192 617.082 24.424 618.474 22.888L620.382 25.12C619.518 26.128 618.438 26.896 617.142 27.424C615.87 27.952 614.442 28.216 612.858 28.216C610.842 28.216 609.054 27.808 607.494 26.992C605.934 26.152 604.722 24.988 603.858 23.5C603.018 22.012 602.598 20.332 602.598 18.46C602.598 16.612 603.006 14.944 603.822 13.456C604.662 11.968 605.802 10.816 607.242 10C608.706 9.16 610.35 8.74 612.174 8.74C613.998 8.74 615.618 9.16 617.034 10C618.474 10.816 619.59 11.968 620.382 13.456C621.198 14.944 621.606 16.648 621.606 18.568ZM612.174 11.656C610.518 11.656 609.126 12.16 607.998 13.168C606.894 14.176 606.246 15.496 606.054 17.128H618.294C618.102 15.52 617.442 14.212 616.314 13.204C615.21 12.172 613.83 11.656 612.174 11.656ZM640.377 25.156V28H624.393V25.768L635.661 11.764H624.609V8.92H640.089V11.188L628.821 25.156H640.377ZM664.859 8.74C667.283 8.74 669.203 9.448 670.619 10.864C672.059 12.256 672.779 14.308 672.779 17.02V28H669.323V17.416C669.323 15.568 668.879 14.176 667.991 13.24C667.103 12.304 665.831 11.836 664.175 11.836C662.303 11.836 660.827 12.388 659.747 13.492C658.667 14.572 658.127 16.132 658.127 18.172V28H654.671V8.92H657.983V11.8C658.679 10.816 659.615 10.06 660.791 9.532C661.991 9.004 663.347 8.74 664.859 8.74ZM678.166 2.8H681.19L680.938 12.52H678.382L678.166 2.8ZM703.977 18.568C703.977 18.832 703.953 19.18 703.905 19.612H688.425C688.641 21.292 689.373 22.648 690.621 23.68C691.893 24.688 693.465 25.192 695.337 25.192C697.617 25.192 699.453 24.424 700.845 22.888L702.753 25.12C701.889 26.128 700.809 26.896 699.513 27.424C698.241 27.952 696.813 28.216 695.229 28.216C693.213 28.216 691.425 27.808 689.865 26.992C688.305 26.152 687.093 24.988 686.229 23.5C685.389 22.012 684.969 20.332 684.969 18.46C684.969 16.612 685.377 14.944 686.193 13.456C687.033 11.968 688.173 10.816 689.613 10C691.077 9.16 692.721 8.74 694.545 8.74C696.369 8.74 697.989 9.16 699.405 10C700.845 10.816 701.961 11.968 702.753 13.456C703.569 14.944 703.977 16.648 703.977 18.568ZM694.545 11.656C692.889 11.656 691.497 12.16 690.369 13.168C689.265 14.176 688.617 15.496 688.425 17.128H700.665C700.473 15.52 699.813 14.212 698.685 13.204C697.581 12.172 696.201 11.656 694.545 11.656ZM720.417 28L714.909 20.692L709.329 28H705.477L713.001 18.244L705.837 8.92H709.689L714.945 15.796L720.165 8.92H723.945L716.745 18.244L724.341 28H720.417ZM728.112 8.92H731.568V28H728.112V8.92ZM729.84 5.248C729.168 5.248 728.604 5.032 728.148 4.6C727.716 4.168 727.5 3.64 727.5 3.016C727.5 2.392 727.716 1.864 728.148 1.432C728.604 0.975999 729.168 0.747999 729.84 0.747999C730.512 0.747999 731.064 0.963999 731.496 1.396C731.952 1.804 732.18 2.32 732.18 2.944C732.18 3.592 731.952 4.144 731.496 4.6C731.064 5.032 730.512 5.248 729.84 5.248ZM743.639 28.216C742.079 28.216 740.579 28.012 739.139 27.604C737.699 27.172 736.571 26.632 735.755 25.984L737.195 23.248C738.035 23.848 739.055 24.328 740.255 24.688C741.455 25.048 742.667 25.228 743.891 25.228C746.915 25.228 748.427 24.364 748.427 22.636C748.427 22.06 748.223 21.604 747.815 21.268C747.407 20.932 746.891 20.692 746.267 20.548C745.667 20.38 744.803 20.2 743.675 20.008C742.139 19.768 740.879 19.492 739.895 19.18C738.935 18.868 738.107 18.34 737.411 17.596C736.715 16.852 736.367 15.808 736.367 14.464C736.367 12.736 737.087 11.356 738.527 10.324C739.967 9.268 741.899 8.74 744.323 8.74C745.595 8.74 746.867 8.896 748.139 9.208C749.411 9.52 750.455 9.94 751.271 10.468L749.795 13.204C748.235 12.196 746.399 11.692 744.287 11.692C742.823 11.692 741.707 11.932 740.939 12.412C740.171 12.892 739.787 13.528 739.787 14.32C739.787 14.944 740.003 15.436 740.435 15.796C740.867 16.156 741.395 16.42 742.019 16.588C742.667 16.756 743.567 16.948 744.719 17.164C746.255 17.428 747.491 17.716 748.427 18.028C749.387 18.316 750.203 18.82 750.875 19.54C751.547 20.26 751.883 21.268 751.883 22.564C751.883 24.292 751.139 25.672 749.651 26.704C748.187 27.712 746.183 28.216 743.639 28.216ZM766.93 26.884C766.426 27.316 765.802 27.652 765.058 27.892C764.314 28.108 763.546 28.216 762.754 28.216C760.834 28.216 759.346 27.7 758.29 26.668C757.234 25.636 756.706 24.16 756.706 22.24V11.764H753.466V8.92H756.706V4.744H760.162V8.92H765.634V11.764H760.162V22.096C760.162 23.128 760.414 23.92 760.918 24.472C761.446 25.024 762.19 25.3 763.15 25.3C764.206 25.3 765.106 25 765.85 24.4L766.93 26.884ZM787.719 18.568C787.719 18.832 787.695 19.18 787.647 19.612H772.167C772.383 21.292 773.115 22.648 774.363 23.68C775.635 24.688 777.207 25.192 779.079 25.192C781.359 25.192 783.195 24.424 784.587 22.888L786.495 25.12C785.631 26.128 784.551 26.896 783.255 27.424C781.983 27.952 780.555 28.216 778.971 28.216C776.955 28.216 775.167 27.808 773.607 26.992C772.047 26.152 770.835 24.988 769.971 23.5C769.131 22.012 768.711 20.332 768.711 18.46C768.711 16.612 769.119 14.944 769.935 13.456C770.775 11.968 771.915 10.816 773.355 10C774.819 9.16 776.463 8.74 778.287 8.74C780.111 8.74 781.731 9.16 783.147 10C784.587 10.816 785.703 11.968 786.495 13.456C787.311 14.944 787.719 16.648 787.719 18.568ZM778.287 11.656C776.631 11.656 775.239 12.16 774.111 13.168C773.007 14.176 772.359 15.496 772.167 17.128H784.407C784.215 15.52 783.555 14.212 782.427 13.204C781.323 12.172 779.943 11.656 778.287 11.656ZM812.302 8.74C814.15 8.74 815.806 9.148 817.27 9.964C818.734 10.78 819.874 11.92 820.69 13.384C821.53 14.848 821.95 16.54 821.95 18.46C821.95 20.38 821.53 22.084 820.69 23.572C819.874 25.036 818.734 26.176 817.27 26.992C815.806 27.808 814.15 28.216 812.302 28.216C810.934 28.216 809.674 27.952 808.522 27.424C807.394 26.896 806.434 26.128 805.642 25.12V34.984H802.186V8.92H805.498V11.944C806.266 10.888 807.238 10.096 808.414 9.568C809.59 9.016 810.886 8.74 812.302 8.74ZM812.014 25.192C813.238 25.192 814.33 24.916 815.29 24.364C816.274 23.788 817.042 22.996 817.594 21.988C818.17 20.956 818.458 19.78 818.458 18.46C818.458 17.14 818.17 15.976 817.594 14.968C817.042 13.936 816.274 13.144 815.29 12.592C814.33 12.04 813.238 11.764 812.014 11.764C810.814 11.764 809.722 12.052 808.738 12.628C807.778 13.18 807.01 13.96 806.434 14.968C805.882 15.976 805.606 17.14 805.606 18.46C805.606 19.78 805.882 20.956 806.434 21.988C806.986 22.996 807.754 23.788 808.738 24.364C809.722 24.916 810.814 25.192 812.014 25.192ZM833.497 8.74C836.137 8.74 838.153 9.388 839.545 10.684C840.961 11.98 841.669 13.912 841.669 16.48V28H838.393V25.48C837.817 26.368 836.989 27.052 835.909 27.532C834.853 27.988 833.593 28.216 832.129 28.216C829.993 28.216 828.277 27.7 826.981 26.668C825.709 25.636 825.073 24.28 825.073 22.6C825.073 20.92 825.685 19.576 826.909 18.568C828.133 17.536 830.077 17.02 832.741 17.02H838.213V16.336C838.213 14.848 837.781 13.708 836.917 12.916C836.053 12.124 834.781 11.728 833.101 11.728C831.973 11.728 830.869 11.92 829.789 12.304C828.709 12.664 827.797 13.156 827.053 13.78L825.613 11.188C826.597 10.396 827.773 9.796 829.141 9.388C830.509 8.956 831.961 8.74 833.497 8.74ZM832.705 25.552C834.025 25.552 835.165 25.264 836.125 24.688C837.085 24.088 837.781 23.248 838.213 22.168V19.504H832.885C829.957 19.504 828.493 20.488 828.493 22.456C828.493 23.416 828.865 24.172 829.609 24.724C830.353 25.276 831.385 25.552 832.705 25.552ZM853.537 28.216C851.977 28.216 850.477 28.012 849.037 27.604C847.597 27.172 846.469 26.632 845.653 25.984L847.093 23.248C847.933 23.848 848.953 24.328 850.153 24.688C851.353 25.048 852.565 25.228 853.789 25.228C856.813 25.228 858.325 24.364 858.325 22.636C858.325 22.06 858.121 21.604 857.713 21.268C857.305 20.932 856.789 20.692 856.165 20.548C855.565 20.38 854.701 20.2 853.573 20.008C852.037 19.768 850.777 19.492 849.793 19.18C848.833 18.868 848.005 18.34 847.309 17.596C846.613 16.852 846.265 15.808 846.265 14.464C846.265 12.736 846.985 11.356 848.425 10.324C849.865 9.268 851.797 8.74 854.221 8.74C855.493 8.74 856.765 8.896 858.037 9.208C859.309 9.52 860.353 9.94 861.169 10.468L859.693 13.204C858.133 12.196 856.297 11.692 854.185 11.692C852.721 11.692 851.605 11.932 850.837 12.412C850.069 12.892 849.685 13.528 849.685 14.32C849.685 14.944 849.901 15.436 850.333 15.796C850.765 16.156 851.293 16.42 851.917 16.588C852.565 16.756 853.465 16.948 854.617 17.164C856.153 17.428 857.389 17.716 858.325 18.028C859.285 18.316 860.101 18.82 860.773 19.54C861.445 20.26 861.781 21.268 861.781 22.564C861.781 24.292 861.037 25.672 859.549 26.704C858.085 27.712 856.081 28.216 853.537 28.216ZM866.928 28.216C866.256 28.216 865.68 27.988 865.2 27.532C864.72 27.052 864.48 26.452 864.48 25.732C864.48 25.036 864.72 24.46 865.2 24.004C865.68 23.524 866.256 23.284 866.928 23.284C867.6 23.284 868.164 23.512 868.62 23.968C869.076 24.424 869.304 25.012 869.304 25.732C869.304 26.452 869.064 27.052 868.584 27.532C868.128 27.988 867.576 28.216 866.928 28.216Z" fill="#FF6060"/>
</svg>
