<svg width="281" height="18" viewBox="0 0 281 18" fill="none" xmlns="http://www.w3.org/2000/svg">
<path d="M9.314 14L6.596 10.13C6.26 10.154 5.996 10.166 5.804 10.166H2.69V14H0.89V1.4H5.804C7.436 1.4 8.72 1.79 9.656 2.57C10.592 3.35 11.06 4.424 11.06 5.792C11.06 6.764 10.82 7.592 10.34 8.276C9.86 8.96 9.176 9.458 8.288 9.77L11.276 14H9.314ZM5.75 8.636C6.89 8.636 7.76 8.39 8.36 7.898C8.96 7.406 9.26 6.704 9.26 5.792C9.26 4.88 8.96 4.184 8.36 3.704C7.76 3.212 6.89 2.966 5.75 2.966H2.69V8.636H5.75ZM22.3381 9.284C22.3381 9.416 22.3261 9.59 22.3021 9.806H14.5621C14.6701 10.646 15.0361 11.324 15.6601 11.84C16.2961 12.344 17.0821 12.596 18.0181 12.596C19.1581 12.596 20.0761 12.212 20.7721 11.444L21.7261 12.56C21.2941 13.064 20.7541 13.448 20.1061 13.712C19.4701 13.976 18.7561 14.108 17.9641 14.108C16.9561 14.108 16.0621 13.904 15.2821 13.496C14.5021 13.076 13.8961 12.494 13.4641 11.75C13.0441 11.006 12.8341 10.166 12.8341 9.23C12.8341 8.306 13.0381 7.472 13.4461 6.728C13.8661 5.984 14.4361 5.408 15.1561 5C15.8881 4.58 16.7101 4.37 17.6221 4.37C18.5341 4.37 19.3441 4.58 20.0521 5C20.7721 5.408 21.3301 5.984 21.7261 6.728C22.1341 7.472 22.3381 8.324 22.3381 9.284ZM17.6221 5.828C16.7941 5.828 16.0981 6.08 15.5341 6.584C14.9821 7.088 14.6581 7.748 14.5621 8.564H20.6821C20.5861 7.76 20.2561 7.106 19.6921 6.602C19.1401 6.086 18.4501 5.828 17.6221 5.828ZM30.1016 13.442C29.8496 13.658 29.5376 13.826 29.1656 13.946C28.7936 14.054 28.4096 14.108 28.0136 14.108C27.0536 14.108 26.3096 13.85 25.7816 13.334C25.2536 12.818 24.9896 12.08 24.9896 11.12V5.882H23.3696V4.46H24.9896V2.372H26.7176V4.46H29.4536V5.882H26.7176V11.048C26.7176 11.564 26.8436 11.96 27.0956 12.236C27.3596 12.512 27.7316 12.65 28.2116 12.65C28.7396 12.65 29.1896 12.5 29.5616 12.2L30.1016 13.442ZM35.9603 14.108C35.0123 14.108 34.1603 13.898 33.4043 13.478C32.6483 13.058 32.0543 12.482 31.6223 11.75C31.2023 11.006 30.9923 10.166 30.9923 9.23C30.9923 8.294 31.2023 7.46 31.6223 6.728C32.0543 5.984 32.6483 5.408 33.4043 5C34.1603 4.58 35.0123 4.37 35.9603 4.37C36.9083 4.37 37.7543 4.58 38.4983 5C39.2543 5.408 39.8423 5.984 40.2623 6.728C40.6943 7.46 40.9103 8.294 40.9103 9.23C40.9103 10.166 40.6943 11.006 40.2623 11.75C39.8423 12.482 39.2543 13.058 38.4983 13.478C37.7543 13.898 36.9083 14.108 35.9603 14.108ZM35.9603 12.596C36.5723 12.596 37.1183 12.458 37.5983 12.182C38.0903 11.894 38.4743 11.498 38.7503 10.994C39.0263 10.478 39.1643 9.89 39.1643 9.23C39.1643 8.57 39.0263 7.988 38.7503 7.484C38.4743 6.968 38.0903 6.572 37.5983 6.296C37.1183 6.02 36.5723 5.882 35.9603 5.882C35.3483 5.882 34.7963 6.02 34.3043 6.296C33.8243 6.572 33.4403 6.968 33.1523 7.484C32.8763 7.988 32.7383 8.57 32.7383 9.23C32.7383 9.89 32.8763 10.478 33.1523 10.994C33.4403 11.498 33.8243 11.894 34.3043 12.182C34.7963 12.458 35.3483 12.596 35.9603 12.596ZM52.1921 4.46V14H50.5541V12.56C50.2061 13.052 49.7441 13.436 49.1681 13.712C48.6041 13.976 47.9861 14.108 47.3141 14.108C46.0421 14.108 45.0401 13.76 44.3081 13.064C43.5761 12.356 43.2101 11.318 43.2101 9.95V4.46H44.9381V9.752C44.9381 10.676 45.1601 11.378 45.6041 11.858C46.0481 12.326 46.6841 12.56 47.5121 12.56C48.4241 12.56 49.1441 12.284 49.6721 11.732C50.2001 11.18 50.4641 10.4 50.4641 9.392V4.46H52.1921ZM57.1378 6.062C57.4378 5.51 57.8818 5.09 58.4697 4.802C59.0578 4.514 59.7718 4.37 60.6118 4.37V6.044C60.5158 6.032 60.3838 6.026 60.2158 6.026C59.2798 6.026 58.5418 6.308 58.0018 6.872C57.4738 7.424 57.2098 8.216 57.2098 9.248V14H55.4818V4.46H57.1378V6.062ZM67.8355 4.37C69.0475 4.37 70.0075 4.724 70.7155 5.432C71.4355 6.128 71.7955 7.154 71.7955 8.51V14H70.0675V8.708C70.0675 7.784 69.8455 7.088 69.4015 6.62C68.9575 6.152 68.3215 5.918 67.4935 5.918C66.5575 5.918 65.8195 6.194 65.2795 6.746C64.7395 7.286 64.4695 8.066 64.4695 9.086V14H62.7415V4.46H64.3975V5.9C64.7455 5.408 65.2135 5.03 65.8015 4.766C66.4015 4.502 67.0795 4.37 67.8355 4.37ZM83.6682 9.284C83.6682 9.416 83.6562 9.59 83.6322 9.806H75.8922C76.0002 10.646 76.3662 11.324 76.9902 11.84C77.6262 12.344 78.4122 12.596 79.3482 12.596C80.4882 12.596 81.4062 12.212 82.1022 11.444L83.0562 12.56C82.6242 13.064 82.0842 13.448 81.4362 13.712C80.8002 13.976 80.0862 14.108 79.2942 14.108C78.2862 14.108 77.3922 13.904 76.6122 13.496C75.8322 13.076 75.2262 12.494 74.7942 11.75C74.3742 11.006 74.1642 10.166 74.1642 9.23C74.1642 8.306 74.3682 7.472 74.7762 6.728C75.1962 5.984 75.7662 5.408 76.4862 5C77.2182 4.58 78.0402 4.37 78.9522 4.37C79.8642 4.37 80.6742 4.58 81.3822 5C82.1022 5.408 82.6602 5.984 83.0562 6.728C83.4642 7.472 83.6682 8.324 83.6682 9.284ZM78.9522 5.828C78.1242 5.828 77.4282 6.08 76.8642 6.584C76.3122 7.088 75.9882 7.748 75.8922 8.564H82.0122C81.9162 7.76 81.5862 7.106 81.0222 6.602C80.4702 6.086 79.7802 5.828 78.9522 5.828ZM87.7237 6.062C88.0237 5.51 88.4677 5.09 89.0557 4.802C89.6437 4.514 90.3577 4.37 91.1977 4.37V6.044C91.1017 6.032 90.9697 6.026 90.8017 6.026C89.8657 6.026 89.1277 6.308 88.5877 6.872C88.0597 7.424 87.7957 8.216 87.7957 9.248V14H86.0677V4.46H87.7237V6.062ZM101.02 14.108C100.24 14.108 99.4905 14.006 98.7705 13.802C98.0505 13.586 97.4865 13.316 97.0785 12.992L97.7985 11.624C98.2185 11.924 98.7285 12.164 99.3285 12.344C99.9285 12.524 100.534 12.614 101.146 12.614C102.658 12.614 103.414 12.182 103.414 11.318C103.414 11.03 103.312 10.802 103.108 10.634C102.904 10.466 102.646 10.346 102.334 10.274C102.034 10.19 101.602 10.1 101.038 10.004C100.27 9.884 99.6405 9.746 99.1485 9.59C98.6685 9.434 98.2545 9.17 97.9065 8.798C97.5585 8.426 97.3845 7.904 97.3845 7.232C97.3845 6.368 97.7445 5.678 98.4645 5.162C99.1845 4.634 100.15 4.37 101.362 4.37C101.998 4.37 102.634 4.448 103.27 4.604C103.906 4.76 104.428 4.97 104.836 5.234L104.098 6.602C103.318 6.098 102.4 5.846 101.344 5.846C100.612 5.846 100.054 5.966 99.6705 6.206C99.2865 6.446 99.0945 6.764 99.0945 7.16C99.0945 7.472 99.2025 7.718 99.4185 7.898C99.6345 8.078 99.8985 8.21 100.21 8.294C100.534 8.378 100.984 8.474 101.56 8.582C102.328 8.714 102.946 8.858 103.414 9.014C103.894 9.158 104.302 9.41 104.638 9.77C104.974 10.13 105.142 10.634 105.142 11.282C105.142 12.146 104.77 12.836 104.026 13.352C103.294 13.856 102.292 14.108 101.02 14.108ZM116.194 4.46V14H114.556V12.56C114.208 13.052 113.746 13.436 113.17 13.712C112.606 13.976 111.988 14.108 111.316 14.108C110.044 14.108 109.042 13.76 108.31 13.064C107.578 12.356 107.212 11.318 107.212 9.95V4.46H108.94V9.752C108.94 10.676 109.162 11.378 109.606 11.858C110.05 12.326 110.686 12.56 111.514 12.56C112.426 12.56 113.146 12.284 113.674 11.732C114.202 11.18 114.466 10.4 114.466 9.392V4.46H116.194ZM121.14 6.062C121.44 5.51 121.884 5.09 122.472 4.802C123.06 4.514 123.774 4.37 124.614 4.37V6.044C124.518 6.032 124.386 6.026 124.218 6.026C123.282 6.026 122.544 6.308 122.004 6.872C121.476 7.424 121.212 8.216 121.212 9.248V14H119.484V4.46H121.14V6.062ZM131.701 0.643999H133.429V14H131.701V0.643999ZM140.202 4.37C141.522 4.37 142.53 4.694 143.226 5.342C143.934 5.99 144.288 6.956 144.288 8.24V14H142.65V12.74C142.362 13.184 141.948 13.526 141.408 13.766C140.88 13.994 140.25 14.108 139.518 14.108C138.45 14.108 137.592 13.85 136.944 13.334C136.308 12.818 135.99 12.14 135.99 11.3C135.99 10.46 136.296 9.788 136.908 9.284C137.52 8.768 138.492 8.51 139.824 8.51H142.56V8.168C142.56 7.424 142.344 6.854 141.912 6.458C141.48 6.062 140.844 5.864 140.004 5.864C139.44 5.864 138.888 5.96 138.348 6.152C137.808 6.332 137.352 6.578 136.98 6.89L136.26 5.594C136.752 5.198 137.34 4.898 138.024 4.694C138.708 4.478 139.434 4.37 140.202 4.37ZM139.806 12.776C140.466 12.776 141.036 12.632 141.516 12.344C141.996 12.044 142.344 11.624 142.56 11.084V9.752H139.896C138.432 9.752 137.7 10.244 137.7 11.228C137.7 11.708 137.886 12.086 138.258 12.362C138.63 12.638 139.146 12.776 139.806 12.776ZM157.378 4.37C158.302 4.37 159.13 4.574 159.862 4.982C160.594 5.39 161.164 5.96 161.572 6.692C161.992 7.424 162.202 8.27 162.202 9.23C162.202 10.19 161.992 11.042 161.572 11.786C161.164 12.518 160.594 13.088 159.862 13.496C159.13 13.904 158.302 14.108 157.378 14.108C156.694 14.108 156.064 13.976 155.488 13.712C154.924 13.448 154.444 13.064 154.048 12.56V17.492H152.32V4.46H153.976V5.972C154.36 5.444 154.846 5.048 155.434 4.784C156.022 4.508 156.67 4.37 157.378 4.37ZM157.234 12.596C157.846 12.596 158.392 12.458 158.872 12.182C159.364 11.894 159.748 11.498 160.024 10.994C160.312 10.478 160.456 9.89 160.456 9.23C160.456 8.57 160.312 7.988 160.024 7.484C159.748 6.968 159.364 6.572 158.872 6.296C158.392 6.02 157.846 5.882 157.234 5.882C156.634 5.882 156.088 6.026 155.596 6.314C155.116 6.59 154.732 6.98 154.444 7.484C154.168 7.988 154.03 8.57 154.03 9.23C154.03 9.89 154.168 10.478 154.444 10.994C154.72 11.498 155.104 11.894 155.596 12.182C156.088 12.458 156.634 12.596 157.234 12.596ZM167.975 4.37C169.295 4.37 170.303 4.694 170.999 5.342C171.707 5.99 172.061 6.956 172.061 8.24V14H170.423V12.74C170.135 13.184 169.721 13.526 169.181 13.766C168.653 13.994 168.023 14.108 167.291 14.108C166.223 14.108 165.365 13.85 164.717 13.334C164.081 12.818 163.763 12.14 163.763 11.3C163.763 10.46 164.069 9.788 164.681 9.284C165.293 8.768 166.265 8.51 167.597 8.51H170.333V8.168C170.333 7.424 170.117 6.854 169.685 6.458C169.253 6.062 168.617 5.864 167.777 5.864C167.213 5.864 166.661 5.96 166.121 6.152C165.581 6.332 165.125 6.578 164.753 6.89L164.033 5.594C164.525 5.198 165.113 4.898 165.797 4.694C166.481 4.478 167.207 4.37 167.975 4.37ZM167.579 12.776C168.239 12.776 168.809 12.632 169.289 12.344C169.769 12.044 170.117 11.624 170.333 11.084V9.752H167.669C166.205 9.752 165.473 10.244 165.473 11.228C165.473 11.708 165.659 12.086 166.031 12.362C166.403 12.638 166.919 12.776 167.579 12.776ZM184.438 4.46V12.704C184.438 14.372 184.024 15.602 183.196 16.394C182.368 17.198 181.132 17.6 179.488 17.6C178.588 17.6 177.73 17.474 176.914 17.222C176.098 16.982 175.438 16.634 174.934 16.178L175.762 14.846C176.206 15.23 176.752 15.53 177.4 15.746C178.06 15.974 178.738 16.088 179.434 16.088C180.55 16.088 181.372 15.824 181.9 15.296C182.44 14.768 182.71 13.964 182.71 12.884V12.128C182.302 12.62 181.798 12.992 181.198 13.244C180.61 13.484 179.968 13.604 179.272 13.604C178.36 13.604 177.532 13.412 176.788 13.028C176.056 12.632 175.48 12.086 175.06 11.39C174.64 10.682 174.43 9.878 174.43 8.978C174.43 8.078 174.64 7.28 175.06 6.584C175.48 5.876 176.056 5.33 176.788 4.946C177.532 4.562 178.36 4.37 179.272 4.37C179.992 4.37 180.658 4.502 181.27 4.766C181.894 5.03 182.404 5.42 182.8 5.936V4.46H184.438ZM179.47 12.092C180.094 12.092 180.652 11.96 181.144 11.696C181.648 11.432 182.038 11.066 182.314 10.598C182.602 10.118 182.746 9.578 182.746 8.978C182.746 8.054 182.44 7.31 181.828 6.746C181.216 6.17 180.43 5.882 179.47 5.882C178.498 5.882 177.706 6.17 177.094 6.746C176.482 7.31 176.176 8.054 176.176 8.978C176.176 9.578 176.314 10.118 176.59 10.598C176.878 11.066 177.268 11.432 177.76 11.696C178.264 11.96 178.834 12.092 179.47 12.092ZM196.362 9.284C196.362 9.416 196.35 9.59 196.326 9.806H188.586C188.694 10.646 189.06 11.324 189.684 11.84C190.32 12.344 191.106 12.596 192.042 12.596C193.182 12.596 194.1 12.212 194.796 11.444L195.75 12.56C195.318 13.064 194.778 13.448 194.13 13.712C193.494 13.976 192.78 14.108 191.988 14.108C190.98 14.108 190.086 13.904 189.306 13.496C188.526 13.076 187.92 12.494 187.488 11.75C187.068 11.006 186.858 10.166 186.858 9.23C186.858 8.306 187.062 7.472 187.47 6.728C187.89 5.984 188.46 5.408 189.18 5C189.912 4.58 190.734 4.37 191.646 4.37C192.558 4.37 193.368 4.58 194.076 5C194.796 5.408 195.354 5.984 195.75 6.728C196.158 7.472 196.362 8.324 196.362 9.284ZM191.646 5.828C190.818 5.828 190.122 6.08 189.558 6.584C189.006 7.088 188.682 7.748 188.586 8.564H194.706C194.61 7.76 194.28 7.106 193.716 6.602C193.164 6.086 192.474 5.828 191.646 5.828ZM212.595 0.643999V14H210.939V12.488C210.555 13.016 210.069 13.418 209.481 13.694C208.893 13.97 208.245 14.108 207.537 14.108C206.613 14.108 205.785 13.904 205.053 13.496C204.321 13.088 203.745 12.518 203.325 11.786C202.917 11.042 202.713 10.19 202.713 9.23C202.713 8.27 202.917 7.424 203.325 6.692C203.745 5.96 204.321 5.39 205.053 4.982C205.785 4.574 206.613 4.37 207.537 4.37C208.221 4.37 208.851 4.502 209.427 4.766C210.003 5.018 210.483 5.396 210.867 5.9V0.643999H212.595ZM207.681 12.596C208.281 12.596 208.827 12.458 209.319 12.182C209.811 11.894 210.195 11.498 210.471 10.994C210.747 10.478 210.885 9.89 210.885 9.23C210.885 8.57 210.747 7.988 210.471 7.484C210.195 6.968 209.811 6.572 209.319 6.296C208.827 6.02 208.281 5.882 207.681 5.882C207.069 5.882 206.517 6.02 206.025 6.296C205.545 6.572 205.161 6.968 204.873 7.484C204.597 7.988 204.459 8.57 204.459 9.23C204.459 9.89 204.597 10.478 204.873 10.994C205.161 11.498 205.545 11.894 206.025 12.182C206.517 12.458 207.069 12.596 207.681 12.596ZM216.297 0.536C216.633 0.536 216.909 0.655999 217.125 0.895999C217.353 1.124 217.467 1.412 217.467 1.76C217.467 1.94 217.449 2.12 217.413 2.3C217.377 2.468 217.299 2.714 217.179 3.038L216.315 5.558H215.181L215.847 2.876C215.619 2.792 215.433 2.654 215.289 2.462C215.157 2.258 215.091 2.024 215.091 1.76C215.091 1.4 215.205 1.106 215.433 0.877999C215.661 0.649999 215.949 0.536 216.297 0.536ZM223.241 4.37C224.561 4.37 225.569 4.694 226.265 5.342C226.973 5.99 227.327 6.956 227.327 8.24V14H225.689V12.74C225.401 13.184 224.987 13.526 224.447 13.766C223.919 13.994 223.289 14.108 222.557 14.108C221.489 14.108 220.631 13.85 219.983 13.334C219.347 12.818 219.029 12.14 219.029 11.3C219.029 10.46 219.335 9.788 219.947 9.284C220.559 8.768 221.531 8.51 222.863 8.51H225.599V8.168C225.599 7.424 225.383 6.854 224.951 6.458C224.519 6.062 223.883 5.864 223.043 5.864C222.479 5.864 221.927 5.96 221.387 6.152C220.847 6.332 220.391 6.578 220.019 6.89L219.299 5.594C219.791 5.198 220.379 4.898 221.063 4.694C221.747 4.478 222.473 4.37 223.241 4.37ZM222.845 12.776C223.505 12.776 224.075 12.632 224.555 12.344C225.035 12.044 225.383 11.624 225.599 11.084V9.752H222.935C221.471 9.752 220.739 10.244 220.739 11.228C220.739 11.708 220.925 12.086 221.297 12.362C221.669 12.638 222.185 12.776 222.845 12.776ZM234.735 14.108C233.763 14.108 232.893 13.898 232.125 13.478C231.369 13.058 230.775 12.482 230.343 11.75C229.911 11.006 229.695 10.166 229.695 9.23C229.695 8.294 229.911 7.46 230.343 6.728C230.775 5.984 231.369 5.408 232.125 5C232.893 4.58 233.763 4.37 234.735 4.37C235.599 4.37 236.367 4.544 237.039 4.892C237.723 5.24 238.251 5.744 238.623 6.404L237.309 7.25C237.009 6.794 236.637 6.452 236.193 6.224C235.749 5.996 235.257 5.882 234.717 5.882C234.093 5.882 233.529 6.02 233.025 6.296C232.533 6.572 232.143 6.968 231.855 7.484C231.579 7.988 231.441 8.57 231.441 9.23C231.441 9.902 231.579 10.496 231.855 11.012C232.143 11.516 232.533 11.906 233.025 12.182C233.529 12.458 234.093 12.596 234.717 12.596C235.257 12.596 235.749 12.482 236.193 12.254C236.637 12.026 237.009 11.684 237.309 11.228L238.623 12.056C238.251 12.716 237.723 13.226 237.039 13.586C236.367 13.934 235.599 14.108 234.735 14.108ZM244.878 14.108C243.906 14.108 243.036 13.898 242.268 13.478C241.512 13.058 240.918 12.482 240.486 11.75C240.054 11.006 239.838 10.166 239.838 9.23C239.838 8.294 240.054 7.46 240.486 6.728C240.918 5.984 241.512 5.408 242.268 5C243.036 4.58 243.906 4.37 244.878 4.37C245.742 4.37 246.51 4.544 247.182 4.892C247.866 5.24 248.394 5.744 248.766 6.404L247.452 7.25C247.152 6.794 246.78 6.452 246.336 6.224C245.892 5.996 245.4 5.882 244.86 5.882C244.236 5.882 243.672 6.02 243.168 6.296C242.676 6.572 242.286 6.968 241.998 7.484C241.722 7.988 241.584 8.57 241.584 9.23C241.584 9.902 241.722 10.496 241.998 11.012C242.286 11.516 242.676 11.906 243.168 12.182C243.672 12.458 244.236 12.596 244.86 12.596C245.4 12.596 245.892 12.482 246.336 12.254C246.78 12.026 247.152 11.684 247.452 11.228L248.766 12.056C248.394 12.716 247.866 13.226 247.182 13.586C246.51 13.934 245.742 14.108 244.878 14.108ZM259.895 4.46V14H258.257V12.56C257.909 13.052 257.447 13.436 256.871 13.712C256.307 13.976 255.689 14.108 255.017 14.108C253.745 14.108 252.743 13.76 252.011 13.064C251.279 12.356 250.913 11.318 250.913 9.95V4.46H252.641V9.752C252.641 10.676 252.863 11.378 253.307 11.858C253.751 12.326 254.387 12.56 255.215 12.56C256.127 12.56 256.847 12.284 257.375 11.732C257.903 11.18 258.167 10.4 258.167 9.392V4.46H259.895ZM271.807 9.284C271.807 9.416 271.795 9.59 271.771 9.806H264.031C264.139 10.646 264.505 11.324 265.129 11.84C265.765 12.344 266.551 12.596 267.487 12.596C268.627 12.596 269.545 12.212 270.241 11.444L271.195 12.56C270.763 13.064 270.223 13.448 269.575 13.712C268.939 13.976 268.225 14.108 267.433 14.108C266.425 14.108 265.531 13.904 264.751 13.496C263.971 13.076 263.365 12.494 262.933 11.75C262.513 11.006 262.303 10.166 262.303 9.23C262.303 8.306 262.507 7.472 262.915 6.728C263.335 5.984 263.905 5.408 264.625 5C265.357 4.58 266.179 4.37 267.091 4.37C268.003 4.37 268.813 4.58 269.521 5C270.241 5.408 270.799 5.984 271.195 6.728C271.603 7.472 271.807 8.324 271.807 9.284ZM267.091 5.828C266.263 5.828 265.567 6.08 265.003 6.584C264.451 7.088 264.127 7.748 264.031 8.564H270.151C270.055 7.76 269.725 7.106 269.161 6.602C268.609 6.086 267.919 5.828 267.091 5.828ZM274.206 4.46H275.934V14H274.206V4.46ZM275.07 2.624C274.734 2.624 274.452 2.516 274.224 2.3C274.008 2.084 273.9 1.82 273.9 1.508C273.9 1.196 274.008 0.931999 274.224 0.715999C274.452 0.487999 274.734 0.373999 275.07 0.373999C275.406 0.373999 275.682 0.482 275.898 0.698C276.126 0.901999 276.24 1.16 276.24 1.472C276.24 1.796 276.126 2.072 275.898 2.3C275.682 2.516 275.406 2.624 275.07 2.624ZM279.234 0.643999H280.962V14H279.234V0.643999Z" fill="#FF6060"/>
<path d="M-1 15.8H282.618V16.7H-1V15.8Z" fill="#FF6060"/>
</svg>
